<?xml version="1.0" encoding="utf-8"?><svg viewBox="0 0 20 20" xmlns="http://www.w3.org/2000/svg" xmlns:xlink="http://www.w3.org/1999/xlink"><style>:root>svg{display:none}:root>svg:target{display:block}</style><svg fill="none" viewBox="0 0 20 20" id="soc-icons" xmlns="http://www.w3.org/2000/svg"><path d="M17.22 3.098L2.447 8.795c-1.009.405-1.003.968-.185 1.218l3.793 1.184 8.777-5.538c.415-.252.794-.116.482.16l-7.11 6.418H8.2h.002l-.262 3.91c.383 0 .552-.175.767-.383l1.843-1.791 3.832 2.83c.707.39 1.215.19 1.39-.654L18.29 4.293c.258-1.033-.394-1.5-1.068-1.195z" fill="#fff"/></svg><svg fill="none" viewBox="0 0 20 20" id="soc-icons_(1)" xmlns="http://www.w3.org/2000/svg"><g clip-path="url(#bclip0_21802_31)"><path d="M19.583 5.422a2.322 2.322 0 00-.638-1.058 2.541 2.541 0 00-1.115-.618c-1.565-.413-7.835-.413-7.835-.413a63.854 63.854 0 00-7.825.392 2.633 2.633 0 00-1.115.633 2.414 2.414 0 00-.648 1.064A24.242 24.242 0 000 10c-.01 1.534.126 3.067.407 4.578.114.4.336.764.646 1.058.309.294.694.506 1.117.619 1.586.412 7.825.412 7.825.412 2.617.03 5.234-.102 7.835-.392.418-.108.802-.32 1.115-.618.308-.295.527-.66.637-1.059.288-1.509.428-3.043.418-4.579a22.148 22.148 0 00-.417-4.597zM8.002 12.853V7.147l5.216 2.854-5.216 2.852z" fill="#fff"/></g><defs><clipPath id="bclip0_21802_31"><path fill="#fff" d="M0 0h20v20H0z"/></clipPath></defs></svg><svg fill="none" viewBox="0 0 20 20" id="soc-icons_(2)" xmlns="http://www.w3.org/2000/svg"><path d="M19.969 4.885c.17.46-.353 1.532-1.567 3.217-.17.23-.389.536-.656.919-.559.715-.875 1.187-.947 1.417-.122.306-.073.6.145.88.122.154.401.46.838.92h.037v.038c.996.944 1.664 1.749 2.004 2.412l.073.154.073.287v.364l-.255.287-.62.134-2.66.076c-.17.026-.37 0-.601-.076a2.501 2.501 0 01-.528-.23l-.22-.153a4.28 4.28 0 01-.728-.69 30 30 0 01-.71-.842 3.735 3.735 0 00-.638-.632c-.219-.166-.413-.223-.583-.172-.024 0-.055.013-.091.038a1.53 1.53 0 00-.183.172c-.085.09-.157.198-.218.326-.06.128-.116.313-.164.555-.049.243-.073.53-.073.862 0 .102-.012.198-.036.287-.025.09-.049.16-.073.21l-.037.04c-.146.152-.34.229-.583.229H9.802c-.51.05-1.026 0-1.549-.153a5.49 5.49 0 01-1.366-.594c-.389-.242-.74-.485-1.057-.727a6.477 6.477 0 01-.729-.632l-.255-.268a1.64 1.64 0 01-.291-.307c-.122-.153-.37-.485-.747-.995-.377-.511-.747-1.06-1.111-1.647-.365-.587-.79-1.36-1.276-2.317A38.204 38.204 0 01.073 5.306.92.92 0 010 5c0-.077.012-.14.036-.192l.037-.038c.097-.153.291-.23.583-.23h2.879c.072 0 .145.02.218.058l.182.096.037.038a.607.607 0 01.255.345c.146.357.31.733.492 1.13.182.395.322.695.419.9l.146.305c.218.434.419.811.6 1.13.183.32.347.568.493.747.146.179.291.319.437.421.146.102.267.153.365.153.097 0 .194-.012.291-.038l.036-.057.128-.25.146-.497.09-.88V6.76a7.138 7.138 0 00-.108-.785 2.442 2.442 0 00-.146-.517l-.037-.114c-.17-.256-.473-.422-.91-.498-.074 0-.05-.09.072-.268.122-.128.255-.23.401-.307.364-.204 1.19-.293 2.478-.268.559 0 1.032.051 1.421.153.121.026.23.07.328.134.097.064.17.154.219.269.048.114.085.23.109.344.024.115.036.281.036.498v.594a6.67 6.67 0 00-.036.765v.92c0 .076-.006.23-.018.46-.012.229-.018.408-.018.535 0 .128.012.275.036.44.024.167.067.307.128.422a.57.57 0 00.236.249.629.629 0 00.164.057c.061.013.152-.025.274-.115.121-.09.255-.217.4-.383.146-.166.328-.415.547-.746.219-.332.45-.715.692-1.15.413-.765.79-1.595 1.13-2.488.024-.051.055-.109.091-.173a.33.33 0 01.128-.134h.036l.037-.038.145-.038h.219l2.988-.039a1.87 1.87 0 01.674.039c.182.05.286.115.31.191l.073.115z" fill="#fff"/></svg></svg>